<?xml version="1.0" encoding="UTF-8" standalone="no"?>
<!-- Created with Inkscape (http://www.inkscape.org/) -->

<svg version="1.1" id="svg1262" width="1530.9722" height="1323.1755" viewBox="0 0 1530.9722 1323.1755" sodipodi:docname="Página 1.svg" xmlns:inkscape="http://www.inkscape.org/namespaces/inkscape" xmlns:sodipodi="http://sodipodi.sourceforge.net/DTD/sodipodi-0.dtd" xmlns="http://www.w3.org/2000/svg" xmlns:svg="http://www.w3.org/2000/svg">
   <defs id="defs1266">
      <clipPath clipPathUnits="userSpaceOnUse" id="clipPath1296">
         <path d="m 27195.3,18326.7 c -256.4,286.6 -232.6,726.5 54,982.8 286.5,256.3 726.4,231.9 982.8,-54.7 L 30272.5,16976 c 312.5,-349.2 468.7,-783.3 468.7,-1216 0,-432.8 -156.2,-866.9 -468.7,-1216.1 l -2040.4,-2278.8 c -256.4,-286.6 -696.3,-311 -982.8,-54.7 -286.6,256.3 -310.4,696.2 -54,982.8 L 29235,15472 c 72,80.6 108.7,183.6 108.7,288 0,104.4 -36.7,207.3 -108.7,287.9 z m -4389.8,-5133.5 c 256.3,-286.6 231.8,-726.5 -54.8,-982.8 -286.5,-256.3 -726.4,-231.9 -982.8,54.7 l -2039.7,2278.8 c -313.2,349.2 -469.4,783.3 -469.4,1216.1 0,432.7 156.2,866.8 469.4,1216 l 3913.2,4371.1 c 177.1,198 383,349.9 613.4,452.2 234,105.1 483.8,157.6 745.2,157.6 262.1,0 511.9,-52.5 745.9,-157.6 229.7,-102.3 435.6,-254.2 613.5,-452.2 256.3,-286.5 231.8,-726.5 -54.8,-982.8 -286.5,-256.3 -726.4,-231.8 -982.8,54.7 -44.6,49 -92.8,85.7 -144,108 -47.5,21.6 -107.2,32.4 -177.8,32.4 -70.6,0 -129.6,-10.8 -177.1,-32.4 -51.9,-22.3 -100.1,-59 -144,-108 l -3913.2,-4371.1 c -72.7,-80.6 -108.7,-183.5 -108.7,-287.9 0,-104.4 36,-207.4 108.7,-288 z" id="path1294" />
      </clipPath>
   </defs>
   <sodipodi:namedview id="namedview1264" pagecolor="#ffffff" bordercolor="#666666" borderopacity="1.0" inkscape:showpageshadow="2" inkscape:pageopacity="0.0" inkscape:pagecheckerboard="0" inkscape:deskcolor="#d1d1d1" showgrid="false" />
   <g id="g1270" inkscape:groupmode="layer" inkscape:label="Page 1" transform="matrix(1.3333333,0,0,-1.3333333,-2673.0303,3032.3206)">
      <g id="g1292" clip-path="url(#clipPath1296)" transform="matrix(0.1,0,0,0.1,78.886999,78.550496)" inkscape:export-filename="icon.svg" inkscape:export-xdpi="16.052546" inkscape:export-ydpi="16.052546" style="fill:#ff3860;fill-opacity:1">
         <g id="g1298" transform="scale(1.88596)" style="fill:#ff3860;fill-opacity:1">
            <path d="m 14419.8,9717.42 c -135.9,151.97 -123.3,385.18 28.7,521.08 151.9,135.9 385.1,123 521.1,-29 l 1081.9,-1208.27 c 165.7,-185.15 248.5,-415.33 248.5,-644.76 0,-229.48 -82.8,-459.66 -248.5,-644.81 l -1081.9,-1208.3 c -136,-151.96 -369.2,-164.9 -521.1,-29 -152,135.9 -164.6,369.15 -28.7,521.11 l 1081.6,1208.29 c 38.1,42.74 57.6,97.36 57.6,152.71 0,55.36 -19.5,109.92 -57.6,152.66 z M 12092.2,6995.47 c 135.9,-151.96 122.9,-385.21 -29,-521.11 -151.9,-135.9 -385.2,-122.96 -521.1,29 l -1081.6,1208.3 c -166,185.15 -248.8,415.33 -248.8,644.81 0,229.43 82.8,459.61 248.8,644.76 l 2074.9,2317.67 c 94,105 203.1,185.6 325.3,239.8 124.1,55.7 256.5,83.6 395.1,83.6 139,0 271.4,-27.9 395.5,-83.6 121.8,-54.2 231,-134.8 325.3,-239.8 135.9,-151.9 122.9,-385.2 -29,-521.1 -151.9,-135.9 -385.2,-122.9 -521.1,29 -23.7,26 -49.3,45.5 -76.4,57.3 -25.2,11.5 -56.8,17.2 -94.3,17.2 -37.4,0 -68.7,-5.7 -93.9,-17.2 -27.5,-11.8 -53.1,-31.3 -76.3,-57.3 L 11010.7,8509.13 c -38.6,-42.74 -57.7,-97.3 -57.7,-152.66 0,-55.35 19.1,-109.97 57.7,-152.71 l 1081.5,-1208.29" style="fill:#ff3860;fill-opacity:1;fill-rule:nonzero;stroke:none" id="path1306" />
         </g>
      </g>
      <path d="m 2624.4064,1972.1154 109.0626,-121.8138 118.8105,-132.7028 c 22.4646,-24.9806 22.4646,-62.4892 0,-87.5504 L 2733.469,1497.3592 2624.4064,1375.5386 c -12.8884,-14.3986 -29.5181,-21.8194 -48.8937,-21.8194 -19.3755,0 -36.0052,7.4208 -48.9623,21.8194 l -109.0798,121.8206 -118.7246,132.6892 c -22.4647,25.0612 -22.4647,62.5698 0,87.5504 l 118.7246,132.7028 109.0798,121.8138 c 12.9571,14.3986 29.5868,21.8983 48.9623,21.8983 19.3756,0 36.0053,-7.4997 48.8937,-21.8983" style="fill:#00d1b2;fill-opacity:1;fill-rule:nonzero;stroke:none;stroke-width:0.171617" id="path1310" />
   </g>
</svg>